<svg version="1.1" xmlns="http://www.w3.org/2000/svg" xmlns:xlink="http://www.w3.org/1999/xlink" x="0px" y="0px"
	 viewBox="0 0 100 100" style="enable-background:new 0 0 100 100;" xml:space="preserve">
<g id="Vrstva_208">
	<g>
		<g>
			<path d="M50,87.5c-0.491,0-0.951-0.24-1.231-0.643l-39-56c-0.319-0.459-0.357-1.057-0.099-1.552C9.929,28.81,10.441,28.5,11,28.5
				h78c0.559,0,1.071,0.31,1.33,0.806c0.259,0.495,0.221,1.093-0.099,1.552l-39,56C50.951,87.26,50.491,87.5,50,87.5z M13.873,31.5
				L50,83.375L86.127,31.5H13.873z"/>
		</g>
		<g>
			<path d="M89,31.5H11c-0.557,0-1.068-0.309-1.328-0.802c-0.259-0.493-0.224-1.089,0.092-1.548l11-16
				c0.28-0.407,0.742-0.65,1.236-0.65h56c0.494,0,0.956,0.243,1.236,0.65l11,16c0.316,0.459,0.351,1.055,0.092,1.548
				C90.068,31.191,89.557,31.5,89,31.5z M13.852,28.5h72.297l-8.938-13H22.789L13.852,28.5z"/>
		</g>
		<g>
			<path d="M50.166,85.333c-0.662,0-1.268-0.441-1.448-1.111L34.051,29.555c-0.215-0.8,0.26-1.623,1.06-1.838
				c0.801-0.208,1.623,0.26,1.837,1.06l14.667,54.667c0.215,0.8-0.26,1.623-1.06,1.838C50.425,85.316,50.294,85.333,50.166,85.333z"
				/>
		</g>
		<g>
			<path d="M50.167,85.333c-0.126,0-0.254-0.016-0.381-0.049c-0.801-0.21-1.281-1.03-1.071-1.832l14.333-54.667
				c0.211-0.801,1.034-1.278,1.832-1.07c0.801,0.21,1.281,1.03,1.071,1.832L51.618,84.214
				C51.441,84.888,50.833,85.333,50.167,85.333z"/>
		</g>
		<g>
			<path d="M35.501,30.666c-0.442,0-0.879-0.194-1.176-0.567L22.742,15.516c-0.515-0.648-0.407-1.592,0.242-2.107
				c0.649-0.515,1.592-0.407,2.108,0.242l11.583,14.583c0.515,0.648,0.407,1.592-0.242,2.107
				C36.157,30.56,35.828,30.666,35.501,30.666z"/>
		</g>
		<g>
			<path d="M64.5,31.666c-0.421,0-0.839-0.176-1.136-0.521L50.781,16.562c-0.541-0.627-0.471-1.574,0.156-2.115
				c0.627-0.541,1.574-0.473,2.116,0.156l12.583,14.583c0.541,0.627,0.471,1.574-0.156,2.115
				C65.196,31.546,64.848,31.666,64.5,31.666z"/>
		</g>
		<g>
			<path d="M36.917,30.666c-0.347,0-0.696-0.12-0.979-0.364c-0.627-0.541-0.697-1.488-0.156-2.115l12.583-14.583
				c0.542-0.627,1.488-0.696,2.116-0.156c0.627,0.541,0.697,1.488,0.156,2.115L38.053,30.146
				C37.756,30.489,37.337,30.666,36.917,30.666z"/>
		</g>
		<g>
			<path d="M63.916,30.666c-0.327,0-0.656-0.106-0.932-0.325c-0.648-0.516-0.757-1.459-0.242-2.107L74.325,13.65
				c0.515-0.649,1.459-0.757,2.108-0.242c0.648,0.516,0.757,1.459,0.242,2.107L65.092,30.099
				C64.795,30.472,64.358,30.666,63.916,30.666z"/>
		</g>
	</g>
</g>
<script  type="text/javascript">
    <![CDATA[
         var c=window.location.search.split('color=')[1]; c=parseInt(c,16); if(!isNaN(c)){c=c.toString(16);var p=document.getElementsByTagName('path');for(var i=0,l=p.length;i<l;i++){var s=p[i].style;s.fill='#'+c;} var p2=document.getElementsByTagName('polygon');for(var i=0,l=p2.length;i<l;i++){var s=p2[i].style;s.fill='#'+c;} var p3=document.getElementsByTagName('circle');for(var i=0,l=p3.length;i<l;i++){var s=p3[i].style;s.fill='#'+c;} }
        ]]>
</script>
</svg>
