<svg version="1.1" id="Vrstva_1" xmlns="http://www.w3.org/2000/svg" xmlns:xlink="http://www.w3.org/1999/xlink" x="0px" y="0px"
	 viewBox="-1.000 -1.000 40.800 26.700" enable-background="new 0 0 38.8 24.7" xml:space="preserve">
<g>
	<path fill="#231F20" d="M23.1,17.7c0-1.7-1.3-3-3-3c-1,0-2,0.5-2.5,1.3c-1.2,1.6-3.1,2.7-5.2,2.7c-3.5,0-6.4-2.9-6.4-6.4
		C6,8.8,8.8,6,12.4,6c2.2,0,4.1,1.1,5.2,2.7c0,0,0,0.1,0.1,0.1c0,0,0,0,0,0h0c0.5,0.7,1.4,1.2,2.4,1.2c1.7,0,3-1.3,3-3
		c0-0.6-0.2-1.2-0.6-1.7l0,0C20.3,2.1,16.6,0,12.4,0C5.5,0,0,5.5,0,12.4c0,6.8,5.5,12.4,12.4,12.4c4.1,0,7.7-2,10-5.1
		C22.8,19.1,23.1,18.4,23.1,17.7z"/>
	<path fill="#231F20" d="M27.9,7.8c-1.6,0-3,0.8-3.8,2.1c-0.9,1.3-2.3,2.1-4,2.1c-1.5,0-2.9-0.7-3.8-1.8c-0.8-1.4-2.3-2.4-4-2.4
		c-2.5,0-4.5,2-4.5,4.5c0,2.5,2,4.5,4.5,4.5c1.6,0,3-0.8,3.8-2.1c0.9-1.2,2.3-2,3.9-2c1.7,0,3.1,0.8,4,2.1l0,0c0.8,1.2,2.2,2,3.8,2
		c2.5,0,4.5-2,4.5-4.5C32.5,9.9,30.4,7.8,27.9,7.8z"/>
	<circle fill="#231F20" cx="36.7" cy="12.4" r="2.2"/>
</g>
<script  type="text/javascript">
    <![CDATA[
         var c=window.location.search.split('color=')[1]; c=parseInt(c,16); if(!isNaN(c)){c=c.toString(16);var p=document.getElementsByTagName('path');for(var i=0,l=p.length;i<l;i++){var s=p[i].style;s.fill='#'+c;} var p2=document.getElementsByTagName('polygon');for(var i=0,l=p2.length;i<l;i++){var s=p2[i].style;s.fill='#'+c;} var p3=document.getElementsByTagName('circle');for(var i=0,l=p3.length;i<l;i++){var s=p3[i].style;s.fill='#'+c;} }
        ]]>
</script>
</svg>
