<svg version="1.1" xmlns="http://www.w3.org/2000/svg" xmlns:xlink="http://www.w3.org/1999/xlink" x="0px" y="0px"
	 viewBox="0 0 100 100" style="enable-background:new 0 0 100 100;" xml:space="preserve">
<g id="Vrstva_26">
	<g>
		<g>
			<path d="M50.394,69.25c-0.829,0-1.5-0.671-1.5-1.5v-53c0-0.829,0.671-1.5,1.5-1.5c0.829,0,1.5,0.671,1.5,1.5v53
				C51.894,68.579,51.222,69.25,50.394,69.25z"/>
		</g>
		<g>
			<path d="M77.429,27.329c-1.939,0-4.58-0.549-8.054-1.272c-5.305-1.104-11.907-2.477-18.981-2.477
				c-7.074,0-13.676,1.374-18.981,2.477c-5.744,1.195-9.21,1.915-10.994,0.464c-0.468-0.38-1.025-1.083-1.025-2.271
				c0-0.829,0.671-1.5,1.5-1.5c0.824,0,1.492,0.664,1.5,1.485c0.994,0.426,5.094-0.426,8.408-1.116
				c5.152-1.072,12.208-2.54,19.592-2.54c7.383,0,14.439,1.468,19.592,2.54c3.311,0.689,7.406,1.543,8.406,1.117
				c0.045-0.79,0.701-1.45,1.5-1.45c0.828,0,1.502,0.635,1.502,1.463c0,1.188-0.557,1.891-1.025,2.271
				C79.664,27.095,78.695,27.329,77.429,27.329z"/>
		</g>
		<g>
			<path d="M57.894,77.75h-15c-0.829,0-1.5-0.671-1.5-1.5s0.671-1.5,1.5-1.5h15c0.829,0,1.5,0.671,1.5,1.5
				S58.722,77.75,57.894,77.75z"/>
		</g>
		<g>
			<path d="M67.894,86.75h-35c-0.829,0-1.5-0.671-1.5-1.5s0.671-1.5,1.5-1.5h35c0.829,0,1.5,0.671,1.5,1.5
				S68.722,86.75,67.894,86.75z"/>
		</g>
		<g>
			<path d="M75.894,62.925c-6.89,0-10.565-0.206-12.277-4.634c-3.456-8.936,5.803-24.645,6.199-25.309
				c0.424-0.712,1.344-0.945,2.056-0.521c0.712,0.424,0.945,1.344,0.521,2.056c-2.487,4.179-8.41,16.403-5.978,22.691
				c0.893,2.31,2.311,2.716,9.48,2.716c7.22,0,8.656-0.41,9.605-2.74c2.453-6.025-2.545-17.475-5.531-22.687l-0.429-0.75
				l0.432-0.501c0.269-0.463,0.764-0.497,1.298-0.497c0.001,0,0.003,0,0.004,0c0.536,0,1.032,0.041,1.298,0.507
				c0.958,1.672,9.255,16.465,5.706,25.184C86.484,62.844,82.797,62.925,75.894,62.925z"/>
		</g>
		<g>
			<path d="M23.894,62.925c-6.89,0-10.565-0.206-12.277-4.634c-3.456-8.936,5.803-24.645,6.199-25.309
				c0.424-0.712,1.343-0.945,2.056-0.521c0.712,0.424,0.945,1.344,0.521,2.056c-2.487,4.179-8.41,16.403-5.978,22.691
				c0.893,2.31,2.311,2.716,9.48,2.716c7.22,0,8.656-0.41,9.605-2.74c2.453-6.025-2.545-17.475-5.531-22.687l-0.429-0.75
				l0.432-0.501c0.269-0.463,0.764-0.497,1.298-0.497c0.001,0,0.003,0,0.004,0c0.536,0,1.032,0.041,1.298,0.507
				c0.958,1.672,9.255,16.465,5.706,25.184C34.484,62.844,30.797,62.925,23.894,62.925z"/>
		</g>
	</g>
</g>
<script  type="text/javascript">
    <![CDATA[
         var c=window.location.search.split('color=')[1]; c=parseInt(c,16); if(!isNaN(c)){c=c.toString(16);var p=document.getElementsByTagName('path');for(var i=0,l=p.length;i<l;i++){var s=p[i].style;s.fill='#'+c;} var p2=document.getElementsByTagName('polygon');for(var i=0,l=p2.length;i<l;i++){var s=p2[i].style;s.fill='#'+c;} var p3=document.getElementsByTagName('circle');for(var i=0,l=p3.length;i<l;i++){var s=p3[i].style;s.fill='#'+c;} }
        ]]>
</script>
</svg>
